 <svg version="1.0" xmlns="http://www.w3.org/2000/svg" width="700.000000pt" height="628.000000pt" viewBox="0 0 700.000000 628.000000" preserveAspectRatio="xMidYMid meet">
<metadata>
Created by potrace 1.12, written by Peter Selinger 2001-2015
</metadata>
<g transform="translate(0.000000,628.000000) scale(0.100000,-0.100000)" fill="#000000" stroke="none">
<path d="M3280 6070 c-962 -80 -1810 -609 -2305 -1440 -153 -255 -276 -573
-339 -876 -165 -789 -5 -1597 447 -2256 l60 -87 46 5 c79 9 129 25 152 50 21
22 21 29 16 151 -3 70 -14 232 -26 358 -31 355 -41 633 -41 1120 l0 447 -88
-6 c-222 -15 -310 -17 -314 -10 -7 13 12 318 20 326 4 3 95 14 202 23 107 10
197 19 199 21 1 1 9 78 17 171 16 202 39 297 99 420 122 248 351 458 670 617
233 116 407 174 695 229 97 18 150 22 335 22 206 0 223 -1 268 -22 46 -22 370
-260 395 -291 26 -33 13 -61 -78 -167 -50 -58 -102 -112 -115 -121 -37 -24
-79 -12 -234 66 -274 137 -446 197 -593 207 -111 8 -158 -9 -222 -77 -48 -51
-78 -109 -89 -170 -7 -37 -35 -582 -38 -735 l-2 -90 104 0 c57 0 282 2 499 5
l395 5 -2 -114 c-1 -62 -5 -117 -10 -121 -4 -4 -79 -39 -166 -78 l-157 -72
-228 0 c-125 0 -278 -3 -340 -7 l-113 -6 5 -626 c6 -871 27 -1421 58 -1524 30
-100 161 -144 548 -184 l75 -8 3 -94 c1 -52 -1 -97 -5 -101 -10 -8 -296 4
-588 25 -373 27 -715 66 -1130 131 l-40 6 135 -134 c74 -74 167 -159 205 -189
791 -625 1811 -810 2755 -500 1041 343 1793 1217 1979 2301 101 592 2 1255
-270 1790 -61 121 -182 323 -196 327 -13 5 -22 -36 -64 -271 -15 -87 -32 -163
-36 -167 -5 -5 -36 -4 -68 1 -277 45 -1443 127 -1465 104 -12 -14 -139 -427
-134 -436 3 -4 23 -8 45 -8 152 0 527 -57 758 -116 548 -139 910 -395 1103
-779 84 -166 122 -345 122 -575 0 -377 -111 -687 -342 -954 -173 -199 -453
-381 -741 -480 -259 -90 -403 -110 -736 -103 -325 7 -600 45 -815 113 l-82 25
-30 67 c-113 247 -221 512 -222 540 0 37 17 57 216 243 93 87 134 119 152 119
22 0 52 -40 229 -307 236 -356 293 -420 438 -492 115 -57 203 -74 374 -75 115
0 154 4 218 22 251 71 444 252 511 481 20 69 20 206 1 290 -87 369 -531 637
-1285 775 -168 31 -379 61 -530 76 -63 6 -120 13 -126 15 -12 3 736 2259 755
2278 6 6 76 5 188 -2 404 -26 701 -58 983 -107 363 -63 424 -73 429 -69 6 7
-127 151 -251 271 -383 371 -894 641 -1419 748 -263 53 -591 76 -829 56z m550
-55 c559 -65 1059 -275 1500 -629 114 -92 332 -308 321 -319 -6 -6 -76 2 -188
22 -346 60 -566 88 -943 116 -274 20 -342 20 -369 -2 -16 -13 -118 -308 -396
-1143 -206 -619 -375 -1137 -375 -1151 0 -48 25 -59 186 -75 472 -48 925 -150
1196 -269 301 -132 476 -293 549 -505 34 -98 32 -260 -3 -351 -34 -87 -69
-141 -137 -213 -75 -79 -180 -146 -282 -181 -72 -24 -104 -29 -221 -33 -171
-5 -269 12 -386 69 -139 68 -187 121 -414 464 -109 165 -208 308 -220 318 -11
10 -37 17 -59 17 -47 0 -100 -42 -275 -221 -129 -132 -144 -158 -126 -221 5
-18 60 -150 121 -293 129 -299 137 -311 250 -345 227 -67 625 -120 906 -120
298 1 595 70 873 205 225 109 419 252 544 399 126 149 55 21 -102 -184 -102
-133 -381 -408 -520 -512 -354 -267 -744 -444 -1170 -533 -786 -164 -1624 15
-2276 486 -146 106 -344 280 -344 303 0 9 7 9 245 -24 305 -42 748 -80 1150
-100 269 -14 259 -19 263 132 2 99 1 105 -22 127 -20 19 -41 24 -127 32 -144
12 -290 37 -355 59 -82 28 -110 52 -123 105 -29 116 -53 898 -49 1580 l3 500
318 8 c360 8 311 -1 550 111 91 43 119 61 127 81 6 15 10 73 10 131 0 99 -1
106 -26 131 l-26 25 -468 -7 c-324 -5 -469 -4 -474 3 -6 11 7 355 24 622 11
176 27 226 89 291 61 63 104 74 220 59 125 -16 270 -68 495 -178 181 -87 205
-96 257 -97 53 0 61 3 94 35 48 46 169 189 184 217 14 28 14 72 -2 100 -12 22
-254 214 -352 279 -150 100 -497 96 -920 -11 -550 -138 -1014 -470 -1185 -849
-53 -115 -74 -226 -93 -474 -2 -29 -8 -57 -13 -62 -5 -4 -76 -13 -159 -20
-173 -14 -221 -24 -234 -49 -6 -10 -15 -89 -21 -176 -11 -151 -10 -160 8 -184
l19 -26 183 0 183 0 2 -460 c3 -524 16 -786 67 -1349 8 -90 9 -145 2 -163 -11
-32 -56 -52 -117 -52 -37 -1 -38 0 -116 118 -239 366 -390 785 -446 1233 -20
159 -20 503 0 669 91 782 504 1501 1130 1969 153 114 201 145 361 233 318 175
712 298 1074 336 142 14 493 12 630 -4z m2157 -1387 c114 -181 238 -470 303
-707 79 -289 104 -505 97 -843 -5 -277 -24 -420 -86 -659 -33 -126 -88 -288
-102 -303 -13 -14 -12 -5 11 109 27 132 37 362 20 491 -70 559 -435 960 -1065
1167 -244 80 -561 142 -843 163 -51 3 -94 10 -97 14 -6 10 95 333 108 346 26
23 885 -33 1324 -86 112 -14 170 -17 187 -10 29 11 46 61 71 210 29 176 29
175 72 108z"></path>
<path d="M6621 1668 c-112 -55 -152 -201 -87 -312 37 -64 93 -99 166 -104 139
-10 240 81 240 217 0 73 -9 98 -52 146 -65 75 -178 97 -267 53z m187 -29 c29
-15 54 -37 73 -67 101 -159 -65 -351 -236 -273 -93 42 -137 148 -99 239 45
108 157 151 262 101z"></path>
<path d="M6633 1584 c-2 -5 -2 -59 -1 -120 3 -101 4 -109 23 -109 17 0 20 8
23 48 3 41 6 47 25 47 42 0 72 -23 77 -60 7 -46 34 -48 38 -3 2 22 -3 38 -18
53 l-22 22 21 14 c26 19 28 74 4 97 -21 18 -163 28 -170 11z m135 -37 c15 -12
16 -39 0 -55 -7 -7 -29 -12 -50 -12 l-38 0 0 45 0 46 38 -7 c20 -4 43 -11 50
-17z"></path>
</g>
</svg>